<svg id="visual" viewBox="0 0 900 450" width="900" height="450" xmlns="http://www.w3.org/2000/svg" xmlns:xlink="http://www.w3.org/1999/xlink" version="1.1"><path d="M0 332L21.5 338.5C43 345 86 358 128.8 368C171.7 378 214.3 385 257.2 383.7C300 382.3 343 372.7 385.8 368.8C428.7 365 471.3 367 514.2 367.8C557 368.7 600 368.3 642.8 368.2C685.7 368 728.3 368 771.2 373.2C814 378.3 857 388.7 878.5 393.8L900 399L900 451L878.5 451C857 451 814 451 771.2 451C728.3 451 685.7 451 642.8 451C600 451 557 451 514.2 451C471.3 451 428.7 451 385.8 451C343 451 300 451 257.2 451C214.3 451 171.7 451 128.8 451C86 451 43 451 21.5 451L0 451Z" fill="#232b43" stroke-linecap="round" stroke-linejoin="miter"></path></svg>